<svg width="31" height="30" viewBox="0 0 31 30" fill="none" xmlns="http://www.w3.org/2000/svg">
<path fill-rule="evenodd" clip-rule="evenodd" d="M22.1601 6.34905C22.5235 6.34905 22.8561 6.48144 23.1121 6.70064C23.4259 6.96927 23.6248 7.36828 23.6248 7.81373C23.6248 8.62265 22.969 9.27841 22.1601 9.27841C21.5102 9.27841 20.9592 8.85516 20.7676 8.26928C20.7207 8.12589 20.6954 7.97277 20.6954 7.81373C20.6954 7.00481 21.3511 6.34905 22.1601 6.34905ZM10.0852 2.07816C8.71124 2.14072 7.7724 2.35857 6.9525 2.6776C6.10338 3.00705 5.38457 3.44904 4.66626 4.16618C3.94796 4.88332 3.50709 5.60324 3.17762 6.45233C2.85858 7.27271 2.64073 8.211 2.57816 9.58487C2.51456 10.9609 2.5 11.4008 2.5 14.9056C2.5 18.4103 2.51456 18.8503 2.57816 20.2263C2.64073 21.6003 2.85858 22.5385 3.17762 23.3589C3.50709 24.2074 3.94807 24.9282 4.66626 25.645C5.38446 26.3618 6.10338 26.8032 6.9525 27.1336C7.77395 27.4526 8.71124 27.6705 10.0852 27.733C11.462 27.7956 11.9012 27.8112 15.4061 27.8112C18.911 27.8112 19.3509 27.7966 20.727 27.733C22.1011 27.6705 23.0393 27.4526 23.8597 27.1336C24.7083 26.8032 25.4276 26.3621 26.1459 25.645C26.8643 24.9279 27.3042 24.2074 27.6346 23.3589C27.9536 22.5385 28.1725 21.6002 28.2341 20.2263C28.2966 18.8492 28.3112 18.4103 28.3112 14.9056C28.3112 11.4008 28.2966 10.9609 28.2341 9.58487C28.1715 8.21089 27.9536 7.27219 27.6346 6.45233C27.3042 5.60376 26.8631 4.88445 26.1459 4.16618C25.4288 3.4479 24.7083 3.00705 23.8607 2.6776C23.0393 2.35857 22.101 2.13969 20.7281 2.07816C19.352 2.01559 18.912 2 15.4071 2C11.9023 2 11.462 2.01456 10.0852 2.07816ZM20.088 14.9066C20.088 17.4936 17.9907 19.5909 15.4036 19.5909C12.8165 19.5909 10.7193 17.4936 10.7193 14.9066C10.7193 12.3195 12.8165 10.2222 15.4036 10.2222C17.9907 10.2222 20.088 12.3195 20.088 14.9066ZM22.1637 14.9066C22.1637 18.64 19.1371 21.6666 15.4036 21.6666C11.6701 21.6666 8.64355 18.64 8.64355 14.9066C8.64355 11.1731 11.6701 8.14648 15.4036 8.14648C19.1371 8.14648 22.1637 11.1731 22.1637 14.9066Z" fill="white"/>
</svg>
